<svg width="41" height="41" viewBox="0 0 41 41" fill="none" xmlns="http://www.w3.org/2000/svg">
<g clip-path="url(#clip0_24_45)">
<path d="M2.47487 22.981C1.8185 22.3246 1.45906 21.425 1.47564 20.4802C1.49221 19.5354 1.88344 18.6227 2.56326 17.9428L17.9428 2.56327C18.6227 1.88345 19.5354 1.49222 20.4802 1.47564C21.425 1.45907 22.3246 1.8185 22.981 2.47488L37.8302 17.3241C38.4866 17.9805 38.846 18.8801 38.8294 19.8249C38.8129 20.7697 38.4216 21.6824 37.7418 22.3623L22.3623 37.7418C21.6824 38.4217 20.7697 38.8129 19.8249 38.8295C18.88 38.846 17.9805 38.4866 17.3241 37.8302L2.47487 22.981Z" fill="#1DA1F2"/>
<path d="M26.2148 23.5859C26.0039 25.3906 25.3359 26.7852 24.2109 27.7695C23.0937 28.7461 21.6055 29.2344 19.7461 29.2344C17.7305 29.2344 16.1133 28.5117 14.8945 27.0664C13.6836 25.6211 13.0781 23.6875 13.0781 21.2656V19.625C13.0781 18.0391 13.3594 16.6445 13.9219 15.4414C14.4922 14.2383 15.2969 13.3164 16.3359 12.6758C17.375 12.0273 18.5781 11.7031 19.9453 11.7031C21.7578 11.7031 23.2109 12.2109 24.3047 13.2266C25.3984 14.2344 26.0352 15.6328 26.2148 17.4219H23.9531C23.7578 16.0625 23.332 15.0781 22.6758 14.4687C22.0273 13.8594 21.1172 13.5547 19.9453 13.5547C18.5078 13.5547 17.3789 14.0859 16.5586 15.1484C15.7461 16.2109 15.3398 17.7227 15.3398 19.6836V21.3359C15.3398 23.1875 15.7266 24.6602 16.5 25.7539C17.2734 26.8477 18.3555 27.3945 19.7461 27.3945C20.9961 27.3945 21.9531 27.1133 22.6172 26.5508C23.2891 25.9805 23.7344 24.9922 23.9531 23.5859H26.2148Z" fill="white"/>
</g>
<defs>
<clipPath id="clip0_24_45">
<rect width="29" height="28" fill="white" transform="translate(0 20.5061) rotate(-45)"/>
</clipPath>
</defs>
</svg>
